<svg xmlns="http://www.w3.org/2000/svg" xmlns:xlink="http://www.w3.org/1999/xlink" xmlns:lucid="lucid" width="1387.49" height="1351.09"><g transform="translate(-200 9.423526278371469)" lucid:page-tab-id="0_0"><path d="M0 0h1760v1360H0z" fill="#fff"/><path d="M220 986a6 6 0 0 1 6-6h148a6 6 0 0 1 6 6v148a6 6 0 0 1-6 6H226a6 6 0 0 1-6-6z" stroke="#5e5e5e" stroke-width="3" fill="#fff"/><use xlink:href="#a" transform="matrix(1,0,0,1,225,985) translate(52.19135802469136 78.71527777777777)"/><path d="M980 1088c0 6.63-26.86 12-60 12s-60-5.37-60-12v-96c0-6.63 26.86-12 60-12s60 5.37 60 12z" stroke="#5e5e5e" stroke-width="3" fill="#fff"/><path d="M980 992c0 6.63-26.86 12-60 12s-60-5.37-60-12" stroke="#5e5e5e" stroke-width="3" fill="none"/><use xlink:href="#b" transform="matrix(1,0,0,1,865,1009) translate(36.48148148148148 47.34027777777778)"/><path d="M1263.33 775a3.2 3.2 0 0 0 2.67 5h148a3.2 3.2 0 0 0 2.67-5l-73.34-110a4 4 0 0 0-6.66 0z" stroke="#5e5e5e" stroke-width="3" fill="#fff"/><use xlink:href="#c" transform="matrix(1,0,0,1,1265,665) translate(57.751913580246914 59.02777777777778)"/><path d="M540 986a6 6 0 0 1 6-6h148a6 6 0 0 1 6 6v108a6 6 0 0 1-6 6H546a6 6 0 0 1-6-6z" stroke="#5e5e5e" stroke-width="3" fill="#fff"/><use xlink:href="#d" transform="matrix(1,0,0,1,552,992) translate(47.01234567901234 53.77777777777778)"/><path d="M423.5 1061h-41.04v-2h41.05zm96.55 0H496.5v-2h23.55z" stroke="#5e5e5e" stroke-width=".05" fill="#5e5e5e"/><path d="M382.5 1061h-1.04v-2h1.03z" fill="#5e5e5e"/><path d="M382.5 1061.03h-1.06v-2.06h1.07zm-1-2v1.94h.96v-1.94z" stroke="#5e5e5e" stroke-width=".05" fill="#5e5e5e"/><path d="M535.3 1060l-14.25 4.62v-9.27z" fill="#5e5e5e"/><path d="M538.55 1060l-18.5 6v-12.02zm-16.5 3.25l10.03-3.26-10.03-3.27z" stroke="#5e5e5e" stroke-width=".05" fill="#5e5e5e"/><use xlink:href="#e" transform="matrix(1,0,0,1,423.5129144798071,1049.3271704418328) translate(0 14.222222222222223)"/><use xlink:href="#f" transform="matrix(1,0,0,1,423.5129144798071,1049.3271704418328) translate(61.13580246913581 14.222222222222223)"/><path d="M743.5 1041h-41.04v-2h41.03zm96.5 0h-23.52v-2H840z" stroke="#5e5e5e" stroke-width=".05" fill="#5e5e5e"/><path d="M702.5 1041h-1.04v-2h1.03z" fill="#5e5e5e"/><path d="M702.5 1041.03h-1.06v-2.06h1.07zm-1-2v1.94h.96v-1.94z" stroke="#5e5e5e" stroke-width=".05" fill="#5e5e5e"/><path d="M855.26 1040l-14.26 4.64v-9.28z" fill="#5e5e5e"/><path d="M858.5 1040l-18.5 6v-12zm-16.5 3.26l10.03-3.26-10.03-3.26z" stroke="#5e5e5e" stroke-width=".05" fill="#5e5e5e"/><use xlink:href="#e" transform="matrix(1,0,0,1,743.4878435591942,1029.3333333333333) translate(0 14.222222222222223)"/><use xlink:href="#f" transform="matrix(1,0,0,1,743.4878435591942,1029.3333333333333) translate(61.13580246913581 14.222222222222223)"/><path d="M840 786a6 6 0 0 1 6-6h148a6 6 0 0 1 6 6v108a6 6 0 0 1-6 6H846a6 6 0 0 1-6-6z" stroke="#5e5e5e" stroke-width="3" fill="#fff"/><use xlink:href="#g" transform="matrix(1,0,0,1,852,792) translate(33.46296296296296 53.77777777777778)"/><path d="M1100 986a6 6 0 0 1 6-6h148a6 6 0 0 1 6 6v108a6 6 0 0 1-6 6h-148a6 6 0 0 1-6-6z" stroke="#5e5e5e" stroke-width="3" fill="#fff"/><use xlink:href="#h" transform="matrix(1,0,0,1,1112,992) translate(26.703703703703702 53.77777777777778)"/><path d="M840 1186a6 6 0 0 1 6-6h148a6 6 0 0 1 6 6v108a6 6 0 0 1-6 6H846a6 6 0 0 1-6-6z" stroke="#5e5e5e" stroke-width="3" fill="#fff"/><use xlink:href="#i" transform="matrix(1,0,0,1,852,1192) translate(34.7283950617284 53.77777777777778)"/><path d="M921 977.5h-2v-26.85h2zm0-48.2h-2v-9.33h2z" stroke="#5e5e5e" stroke-width=".05" fill="#5e5e5e"/><path d="M921 978.54l-1-.04-1 .03v-1.06h2z" fill="#5e5e5e"/><path d="M921.02 978.56l-1.02-.04-1.02.04v-1.1H921zm-2-1.06v1l.98-.03.98.04v-1z" stroke="#5e5e5e" stroke-width=".05" fill="#5e5e5e"/><path d="M924.64 918.97h-9.28L920 904.7z" fill="#5e5e5e"/><path d="M926 919.97h-12l6-18.5zm-9.26-2h6.52L920 907.94z" stroke="#5e5e5e" stroke-width=".05" fill="#5e5e5e"/><use xlink:href="#j" transform="matrix(1,0,0,1,914.074074074074,929.3145225354181) translate(0 14.222222222222223)"/><path d="M1003.52 1041H982.5v-2h21.02zm76.5 0h-3.5v-2h3.5z" stroke="#5e5e5e" stroke-width=".05" fill="#5e5e5e"/><path d="M982.53 1041h-1.03v-2h1.03z" fill="#5e5e5e"/><path d="M982.55 1041.03h-1.07v-2.06h1.07zm-1.02-2v1.94h.97v-1.94z" stroke="#5e5e5e" stroke-width=".05" fill="#5e5e5e"/><path d="M1095.3 1040l-14.27 4.64v-9.28z" fill="#5e5e5e"/><path d="M1098.54 1040l-18.5 6v-12zm-16.5 3.26l10.02-3.26-10.03-3.26z" stroke="#5e5e5e" stroke-width=".05" fill="#5e5e5e"/><use xlink:href="#e" transform="matrix(1,0,0,1,1003.5245021198181,1029.3333333333333) translate(0 14.222222222222223)"/><use xlink:href="#f" transform="matrix(1,0,0,1,1003.5245021198181,1029.3333333333333) translate(61.13580246913581 14.222222222222223)"/><path d="M921 1160.03h-2v-9.34h2zm0-30.68h-2v-26.85h2z" stroke="#5e5e5e" stroke-width=".05" fill="#5e5e5e"/><path d="M920 1101.5l1-.03v1.06h-2v-1.07z" fill="#5e5e5e"/><path d="M920 1101.48l1.02-.04v1.1H919v-1.1zm-.98 1.02H921v-1l-.98.03-.98-.04z" stroke="#5e5e5e" stroke-width=".05" fill="#5e5e5e"/><path d="M920 1175.3l-4.64-14.27h9.28z" fill="#5e5e5e"/><path d="M920 1178.54l-6-18.5h12zm-3.26-16.5l3.26 10.02 3.26-10.03z" stroke="#5e5e5e" stroke-width=".05" fill="#5e5e5e"/><use xlink:href="#j" transform="matrix(1,0,0,1,914.074074074074,1129.3521441312485) translate(0 14.222222222222223)"/><path d="M951.67 1118.16v59.36h-2v-59.36z" stroke="#5e5e5e" stroke-width=".05" fill="#5e5e5e"/><path d="M951.66 1178.52h-2v-1.02h2z" fill="#5e5e5e"/><path d="M951.68 1178.55h-2.05v-1.08h2.05zm-2-1.03v.98h1.95v-.98z" stroke="#5e5e5e" stroke-width=".05" fill="#5e5e5e"/><path d="M955.3 1117.16h-9.27l4.64-14.26z" fill="#5e5e5e"/><path d="M956.68 1118.16h-12.03l6.02-18.5zm-9.27-2h6.53l-3.26-10.03z" stroke="#5e5e5e" stroke-width=".05" fill="#5e5e5e"/><use xlink:href="#k" transform="matrix(1,0,0,1,958.6654140561474,1128.4257553831035) translate(0 14.222222222222223)"/><path d="M955.67 962.32h-2l-.02-10.52h2zm-.03-31.85h-2v-28.02h2z" stroke="#5e5e5e" stroke-width=".05" fill="#5e5e5e"/><path d="M955.64 902.47h-2v-1.02h2z" fill="#5e5e5e"/><path d="M955.66 902.5h-2.05v-1.08h2.06zm-2-1.03v.98h1.95v-.98z" stroke="#5e5e5e" stroke-width=".05" fill="#5e5e5e"/><path d="M954.67 977.6l-4.64-14.28h9.27z" fill="#5e5e5e"/><path d="M954.67 980.82l-6.02-18.5h12.03zm-3.26-16.5l3.27 10.03 3.26-10.03z" stroke="#5e5e5e" stroke-width=".05" fill="#5e5e5e"/><use xlink:href="#j" transform="matrix(1,0,0,1,948.7255373464773,930.4671371620748) translate(0 14.222222222222223)"/><path d="M1194.07 841h-191.6v-2h191.6zM1341 799.97l-.07 35.1-.27 1.1-.42 1-.57.95-.72.83-.83.72-.94.57-1.02.42-1.06.26-1.06.08h-128.1v-2h128.02l.82-.06.76-.2.73-.3.67-.4.6-.5.5-.6.4-.67.3-.73.2-.72.06-34.86z" stroke="#5e5e5e" stroke-width=".05" fill="#5e5e5e"/><path d="M1002.5 841h-1.04v-2h1.03z" fill="#5e5e5e"/><path d="M1002.5 841.02h-1.06V839h1.07zm-1-2V841h.96V839z" stroke="#5e5e5e" stroke-width=".05" fill="#5e5e5e"/><path d="M1344.64 798.96h-9.28l4.64-14.26z" fill="#5e5e5e"/><path d="M1346 799.96h-12l6-18.5zm-9.26-2h6.52l-3.26-10.03z" stroke="#5e5e5e" stroke-width=".05" fill="#5e5e5e"/><use xlink:href="#j" transform="matrix(1,0,0,1,1194.0743263411275,829.3333333333334) translate(0 14.222222222222223)"/><path d="M1341 799.97l-.05 164.02h-1.26v21.32h1.24v49.74l-.28 1.1-.42 1.02-.57.94-.72.83-.83.72-.94.57-1.02.42-1.06.26-1.06.08h-71.58v-2h71.5l.82-.06.76-.2.73-.3.67-.4.6-.5.5-.6.4-.67.3-.73.2-.72.06-234.86z" stroke="#5e5e5e" stroke-width=".05" fill="#5e5e5e"/><path d="M1262.5 1041h-1.04v-2h1.03z" fill="#5e5e5e"/><path d="M1262.5 1041.03h-1.06v-2.06h1.07zm-1-2v1.94h.96v-1.94z" stroke="#5e5e5e" stroke-width=".05" fill="#5e5e5e"/><path d="M1344.64 798.96h-9.28l4.64-14.26z" fill="#5e5e5e"/><path d="M1346 799.96h-12l6-18.5zm-9.26-2h6.52l-3.26-10.03z" stroke="#5e5e5e" stroke-width=".05" fill="#5e5e5e"/><use xlink:href="#e" transform="matrix(1,0,0,1,1259.0123456790122,909.7528341526997) translate(0 14.222222222222223)"/><use xlink:href="#f" transform="matrix(1,0,0,1,1259.0123456790122,909.7528341526997) translate(61.13580246913581 14.222222222222223)"/><path d="M301.07 1314.82l.18.72.3.73.4.67.52.6.6.5.66.4.73.3.76.2.82.06 428.33-.04v2l-428.4.04-1.07-.08-1.06-.26-1.02-.42-.94-.57-.83-.72-.72-.83-.57-.94-.42-1.02-.27-1.1-.07-155.1h2zm879.93-.78l-.08 1.06-.26 1.06-.42 1.02-.57.94-.72.83-.83.72-.94.57-1.02.42-1.1.27-389.43.03v-2l389.2-.03.7-.18.74-.3.67-.4.6-.52.5-.6.4-.66.3-.73.2-.76.06-.82v-211.5h2z" stroke="#5e5e5e" stroke-width=".05" fill="#5e5e5e"/><path d="M1181 1102.5h-2v-1.04h2z" fill="#5e5e5e"/><path d="M1181.03 1102.5h-2.06v-1.06h2.06zm-2-1v.96h1.94v-.97z" stroke="#5e5e5e" stroke-width=".05" fill="#5e5e5e"/><path d="M304.64 1158.97h-9.28l4.64-14.27z" fill="#5e5e5e"/><path d="M306 1159.97h-12l6-18.5zm-9.26-2h6.52l-3.26-10.03z" stroke="#5e5e5e" stroke-width=".05" fill="#5e5e5e"/><use xlink:href="#l" transform="matrix(1,0,0,1,734.3703703703703,1309.3333333333333) translate(0 14.222222222222223)"/><path d="M1162.1 815.65l-142.15.03v-2l142.15-.03zm140.27-6.93l-.08 1.06-.27 1.07-.42 1-.57.95-.7.84-.84.7-.95.58-1.02.42-1.1.27-122.48.04v-2l122.24-.03.7-.16.74-.3.67-.4.6-.52.5-.6.42-.67.3-.72.18-.76.07-.83v-26.2h2z" stroke="#5e5e5e" stroke-width=".05" fill="#5e5e5e"/><path d="M1302.37 781.44v1.03h-2v-1.03z" fill="#5e5e5e"/><path d="M1302.4 781.42v1.07h-2.06v-1.08zm-2 1.02h1.94v-.97h-1.95z" stroke="#5e5e5e" stroke-width=".05" fill="#5e5e5e"/><path d="M1018.95 819.32l-14.27-4.64 14.27-4.63z" fill="#5e5e5e"/><path d="M1019.95 820.7l-18.5-6.02 18.5-6zm-12.03-6.02l10.03 3.26v-6.52z" stroke="#5e5e5e" stroke-width=".05" fill="#5e5e5e"/><use xlink:href="#j" transform="matrix(1,0,0,1,1162.1015835971805,804.0167371594331) translate(0 14.222222222222223)"/><path d="M220 366a6 6 0 0 1 6-6h148a6 6 0 0 1 6 6v148a6 6 0 0 1-6 6H226a6 6 0 0 1-6-6z" stroke="#5e5e5e" stroke-width="3" fill="#fff"/><use xlink:href="#m" transform="matrix(1,0,0,1,225,365) translate(21.45061728395062 50.59027777777778)"/><use xlink:href="#n" transform="matrix(1,0,0,1,225,365) translate(71.94444444444446 50.59027777777778)"/><use xlink:href="#o" transform="matrix(1,0,0,1,225,365) translate(56.51234567901235 77.25694444444446)"/><use xlink:href="#p" transform="matrix(1,0,0,1,225,365) translate(20.80246913580247 103.92361111111111)"/><use xlink:href="#q" transform="matrix(1,0,0,1,225,365) translate(72.59259259259258 103.92361111111111)"/><path d="M980 468c0 6.63-26.86 12-60 12s-60-5.37-60-12v-96c0-6.63 26.86-12 60-12s60 5.37 60 12z" stroke="#5e5e5e" stroke-width="3" fill="#fff"/><path d="M980 372c0 6.63-26.86 12-60 12s-60-5.37-60-12" stroke="#5e5e5e" stroke-width="3" fill="none"/><use xlink:href="#b" transform="matrix(1,0,0,1,865,389.00000000000006) translate(36.48148148148148 47.34027777777778)"/><path d="M1263.33 155a3.2 3.2 0 0 0 2.67 5h148a3.2 3.2 0 0 0 2.67-5l-73.34-110a4 4 0 0 0-6.66 0z" stroke="#5e5e5e" stroke-width="3" fill="#fff"/><use xlink:href="#c" transform="matrix(1,0,0,1,1265,45) translate(57.751913580246914 59.02777777777778)"/><path d="M540 366a6 6 0 0 1 6-6h148a6 6 0 0 1 6 6v108a6 6 0 0 1-6 6H546a6 6 0 0 1-6-6z" stroke="#5e5e5e" stroke-width="3" fill="#fff"/><use xlink:href="#d" transform="matrix(1,0,0,1,552,372.00000000000006) translate(47.01234567901234 53.77777777777778)"/><path d="M434.38 441h-51.92v-2h51.92zm85.67 0h-34.4v-2h34.4z" stroke="#5e5e5e" stroke-width=".05" fill="#5e5e5e"/><path d="M382.5 441h-1.04v-2h1.03z" fill="#5e5e5e"/><path d="M382.5 441.02h-1.06v-2.04h1.07zm-1-2v1.96h.96v-1.96z" stroke="#5e5e5e" stroke-width=".05" fill="#5e5e5e"/><path d="M535.3 440l-14.25 4.62v-9.27z" fill="#5e5e5e"/><path d="M538.55 440l-18.5 6v-12.02zm-16.5 3.25l10.03-3.26-10.03-3.27z" stroke="#5e5e5e" stroke-width=".05" fill="#5e5e5e"/><use xlink:href="#l" transform="matrix(1,0,0,1,434.3771120106713,429.32717044183283) translate(0 14.222222222222223)"/><path d="M754.35 421h-51.9v-2h51.9zm85.65 0h-34.4v-2H840z" stroke="#5e5e5e" stroke-width=".05" fill="#5e5e5e"/><path d="M702.5 421h-1.04v-2h1.03z" fill="#5e5e5e"/><path d="M702.5 421.02h-1.06v-2.04h1.07zm-1-2v1.96h.96v-1.96z" stroke="#5e5e5e" stroke-width=".05" fill="#5e5e5e"/><path d="M855.26 420L841 424.64v-9.28z" fill="#5e5e5e"/><path d="M858.5 420l-18.5 6v-12zm-16.5 3.26l10.03-3.26-10.03-3.26z" stroke="#5e5e5e" stroke-width=".05" fill="#5e5e5e"/><use xlink:href="#l" transform="matrix(1,0,0,1,754.3520410900584,409.33333333333337) translate(0 14.222222222222223)"/><path d="M840 166a6 6 0 0 1 6-6h148a6 6 0 0 1 6 6v108a6 6 0 0 1-6 6H846a6 6 0 0 1-6-6z" stroke="#5e5e5e" stroke-width="3" fill="#fff"/><use xlink:href="#g" transform="matrix(1,0,0,1,852,172) translate(33.46296296296296 53.77777777777778)"/><path d="M1100 366a6 6 0 0 1 6-6h148a6 6 0 0 1 6 6v108a6 6 0 0 1-6 6h-148a6 6 0 0 1-6-6z" stroke="#5e5e5e" stroke-width="3" fill="#fff"/><use xlink:href="#h" transform="matrix(1,0,0,1,1112,372.00000000000006) translate(26.703703703703702 53.77777777777778)"/><path d="M840 566a6 6 0 0 1 6-6h148a6 6 0 0 1 6 6v108a6 6 0 0 1-6 6H846a6 6 0 0 1-6-6z" stroke="#5e5e5e" stroke-width="3" fill="#fff"/><use xlink:href="#i" transform="matrix(1,0,0,1,852,572) translate(34.7283950617284 53.77777777777778)"/><path d="M1014.4 421h-31.9v-2h31.9zm65.63 0h-14.38v-2h14.38z" stroke="#5e5e5e" stroke-width=".05" fill="#5e5e5e"/><path d="M982.53 421h-1.03v-2h1.03z" fill="#5e5e5e"/><path d="M982.55 421.02h-1.07v-2.04h1.07zm-1.02-2v1.96h.97v-1.96z" stroke="#5e5e5e" stroke-width=".05" fill="#5e5e5e"/><path d="M1095.3 420l-14.27 4.64v-9.28z" fill="#5e5e5e"/><path d="M1098.54 420l-18.5 6v-12zm-16.5 3.26l10.02-3.26-10.03-3.26z" stroke="#5e5e5e" stroke-width=".05" fill="#5e5e5e"/><use xlink:href="#l" transform="matrix(1,0,0,1,1014.3886996506823,409.33333333333337) translate(0 14.222222222222223)"/><path d="M921 540.03h-2v-9.34h2zm0-30.68h-2V482.5h2z" stroke="#5e5e5e" stroke-width=".05" fill="#5e5e5e"/><path d="M920 481.5l1-.03v1.06h-2v-1.07z" fill="#5e5e5e"/><path d="M920 481.48l1.02-.04v1.1H919v-1.1zm-.98 1.02H921v-1l-.98.03-.98-.04z" stroke="#5e5e5e" stroke-width=".05" fill="#5e5e5e"/><path d="M920 555.3l-4.64-14.27h9.28z" fill="#5e5e5e"/><path d="M920 558.54l-6-18.5h12zm-3.26-16.5l3.26 10.02 3.26-10.03z" stroke="#5e5e5e" stroke-width=".05" fill="#5e5e5e"/><use xlink:href="#j" transform="matrix(1,0,0,1,914.074074074074,509.3521441312486) translate(0 14.222222222222223)"/><path d="M951.67 498.16v59.36h-2v-59.36z" stroke="#5e5e5e" stroke-width=".05" fill="#5e5e5e"/><path d="M951.66 558.52h-2v-1.02h2z" fill="#5e5e5e"/><path d="M951.68 558.55h-2.05v-1.08h2.05zm-2-1.03v.98h1.95v-.98z" stroke="#5e5e5e" stroke-width=".05" fill="#5e5e5e"/><path d="M955.3 497.16h-9.27l4.64-14.26z" fill="#5e5e5e"/><path d="M956.68 498.16h-12.03l6.02-18.5zm-9.27-2h6.53l-3.26-10.03z" stroke="#5e5e5e" stroke-width=".05" fill="#5e5e5e"/><use xlink:href="#k" transform="matrix(1,0,0,1,958.6654140561475,508.42575538310354) translate(0 14.222222222222223)"/><path d="M955.67 342.32h-2l-.02-10.52h2zm-.03-31.85h-2v-28.02h2z" stroke="#5e5e5e" stroke-width=".05" fill="#5e5e5e"/><path d="M955.64 282.47h-2v-1.02h2z" fill="#5e5e5e"/><path d="M955.66 282.5h-2.05v-1.08h2.06zm-2-1.03v.98h1.95v-.98z" stroke="#5e5e5e" stroke-width=".05" fill="#5e5e5e"/><path d="M954.67 357.6l-4.64-14.28h9.27z" fill="#5e5e5e"/><path d="M954.67 360.82l-6.02-18.5h12.03zm-3.26-16.5l3.27 10.03 3.26-10.03z" stroke="#5e5e5e" stroke-width=".05" fill="#5e5e5e"/><use xlink:href="#j" transform="matrix(1,0,0,1,948.7255373464773,310.4671371620747) translate(0 14.222222222222223)"/><path d="M1340.93 415.06l-.27 1.1-.42 1.02-.57.94-.72.83-.83.72-.94.57-1.02.42-1.06.26-1.06.08h-71.58v-2h71.5l.82-.06.76-.2.73-.3.67-.4.6-.5.5-.6.4-.67.3-.73.2-.72v-74.15h2zm.07-235.1l-.04 139.37h-2l.04-139.37z" stroke="#5e5e5e" stroke-width=".05" fill="#5e5e5e"/><path d="M1262.5 421h-1.04v-2h1.03z" fill="#5e5e5e"/><path d="M1262.5 421.02h-1.06v-2.04h1.07zm-1-2v1.96h.96v-1.96z" stroke="#5e5e5e" stroke-width=".05" fill="#5e5e5e"/><path d="M1344.64 178.96h-9.28l4.64-14.26z" fill="#5e5e5e"/><path d="M1346 179.96h-12l6-18.5zm-9.26-2h6.52l-3.26-10.03z" stroke="#5e5e5e" stroke-width=".05" fill="#5e5e5e"/><use xlink:href="#l" transform="matrix(1,0,0,1,1314.3703703703704,319.33308106627993) translate(0 14.222222222222223)"/><path d="M1162.1 195.65l-142.15.03v-2l142.15-.03zm140.27-6.93l-.08 1.06-.27 1.07-.42 1-.57.95-.7.84-.84.7-.95.58-1.02.42-1.1.27-122.48.04v-2l122.24-.03.7-.16.74-.3.67-.4.6-.52.5-.6.42-.67.3-.72.18-.76.07-.83v-26.2h2z" stroke="#5e5e5e" stroke-width=".05" fill="#5e5e5e"/><path d="M1302.37 161.44v1.03h-2v-1.03z" fill="#5e5e5e"/><path d="M1302.4 161.42v1.07h-2.06v-1.08zm-2 1.02h1.94v-.97h-1.95z" stroke="#5e5e5e" stroke-width=".05" fill="#5e5e5e"/><path d="M1018.95 199.32l-14.27-4.64 14.27-4.63z" fill="#5e5e5e"/><path d="M1019.95 200.7l-18.5-6.02 18.5-6zm-12.03-6.02l10.03 3.26v-6.52z" stroke="#5e5e5e" stroke-width=".05" fill="#5e5e5e"/><use xlink:href="#j" transform="matrix(1,0,0,1,1162.1015835971805,184.01673715943303) translate(0 14.222222222222223)"/><path d="M857.5 447v2h-71.58v-2zm-83.43 0v2h-54.1v-2z" stroke="#5e5e5e" stroke-width=".05" fill="#5e5e5e"/><path d="M858.5 449h-1.03v-2h1.03z" fill="#5e5e5e"/><path d="M858.52 449.02h-1.07v-2.04h1.07zm-1.02-2v1.96h.98v-1.96z" stroke="#5e5e5e" stroke-width=".05" fill="#5e5e5e"/><path d="M718.98 452.63L704.72 448l14.26-4.64z" fill="#5e5e5e"/><path d="M719.98 454l-18.5-6 18.5-6.02zm-12.03-6l10.03 3.25v-6.5z" stroke="#5e5e5e" stroke-width=".05" fill="#5e5e5e"/><use xlink:href="#j" transform="matrix(1,0,0,1,774.0652468958759,437.3303006831549) translate(0 14.222222222222223)"/><path d="M249.04 960.06h-2L247 760.7h2zm-.03-220.7h-2V522.5h2z" stroke="#5e5e5e" stroke-width=".05" fill="#5e5e5e"/><path d="M249 522.5h-2v-1h2z" fill="#5e5e5e"/><path d="M249.03 522.54h-2.05v-1.08h2.05zm-2-1.03v1h1.95v-1z" stroke="#5e5e5e" stroke-width=".05" fill="#5e5e5e"/><path d="M248.04 975.33l-4.64-14.27h9.28z" fill="#5e5e5e"/><path d="M248.04 978.56l-6-18.5h12zm-3.26-16.5l3.26 10.03 3.26-10.04z" stroke="#5e5e5e" stroke-width=".05" fill="#5e5e5e"/><use xlink:href="#l" transform="matrix(1,0,0,1,222.3938093598477,739.3591421331872) translate(0 14.222222222222223)"/><path d="M1540.93 616.63l-.27 1.1-.42 1.03-.57.93-.72.83-.83.7-.94.6-1.02.4-1.06.26-1.06.08-195.32.02.2.16.7.83.57.93.4 1 .27 1.08.08 1.07v15.54h-2v-15.45l-.06-.82-.2-.77-.3-.72-.4-.67-.5-.6-.6-.5-.68-.4-.72-.3-.73-.2-35.36-.06-1.07-2.1 235.63-.02.82-.07.76-.17.73-.3.67-.4.6-.52.5-.6.4-.65.3-.73.2-.72.02-294.16h2zM1535.06.65l1.1.27 1.02.42.94.57.83.72.72.84.57.94.42 1 .26 1.08.08 1.06-.04 293.37h-2L1539 7.63l-.06-.83-.2-.77-.3-.72-.4-.66-.5-.6-.6-.5-.67-.42-.73-.3-.72-.17-196.1-.06.2.16.7.83.57.93.4 1 .28 1.12.07 16.55h-2l-.07-16.3-.17-.74-.3-.72-.4-.67-.5-.6-.6-.5-.68-.4-.72-.3-.77-.2-.82-.06-35.57-.02 1.08-2.1z" stroke="#5e5e5e" stroke-width=".05" fill="#5e5e5e"/><path d="M1339.95 658.47l-4.63-14.26h9.27z" fill="#5e5e5e"/><path d="M1339.95 661.7l-6-18.5h12zm-3.26-16.5l3.25 10.04 3.26-10.03z" stroke="#5e5e5e" stroke-width=".05" fill="#5e5e5e"/><path d="M1339.95 38.47l-4.63-14.26h9.27z" fill="#5e5e5e"/><path d="M1339.95 41.7l-6-18.5h12zm-3.26-16.5l3.25 10.04 3.26-10.03z" stroke="#5e5e5e" stroke-width=".05" fill="#5e5e5e"/><use xlink:href="#e" transform="matrix(1,0,0,1,1503.5061728395062,300.90980705496173) translate(0 14.222222222222223)"/><use xlink:href="#f" transform="matrix(1,0,0,1,1503.5061728395062,300.90980705496173) translate(61.13580246913581 14.222222222222223)"/><path d="M425.23 462.32h-25.25v-2h25.25zm112.33-.02H494.8v-2h42.76z" stroke="#5e5e5e" stroke-width=".05" fill="#5e5e5e"/><path d="M538.57 462.3h-1.03v-2h1.02z" fill="#5e5e5e"/><path d="M538.6 462.33h-1.1v-2.05h1.1zm-1.04-2v1.95h.98v-1.95z" stroke="#5e5e5e" stroke-width=".05" fill="#5e5e5e"/><path d="M398.98 465.96l-14.27-4.63L399 456.7z" fill="#5e5e5e"/><path d="M399.98 467.34l-18.5-6 18.5-6.03zm-12.03-6l10.03 3.25v-6.53z" stroke="#5e5e5e" stroke-width=".05" fill="#5e5e5e"/><use xlink:href="#r" transform="matrix(1,0,0,1,425.2291472959618,450.6468379809487) translate(0 14.222222222222223)"/><path d="M301 977.54h-2V760.67h2zm0-238.2h-2V539.96h2z" stroke="#5e5e5e" stroke-width=".05" fill="#5e5e5e"/><path d="M301 978.54h-2v-1.03h2z" fill="#5e5e5e"/><path d="M301.02 978.56h-2.04v-1.07h2.04zm-2-1.02v.97h1.96v-.96z" stroke="#5e5e5e" stroke-width=".05" fill="#5e5e5e"/><path d="M304.64 538.97h-9.28L300 524.7z" fill="#5e5e5e"/><path d="M306 539.97h-12l6-18.5zm-9.26-2h6.52L300 527.94z" stroke="#5e5e5e" stroke-width=".05" fill="#5e5e5e"/><use xlink:href="#s" transform="matrix(1,0,0,1,294.0740740740741,739.3333333333334) translate(0 14.222222222222223)"/><path d="M520 166a6 6 0 0 1 6-6h148a6 6 0 0 1 6 6v108a6 6 0 0 1-6 6H526a6 6 0 0 1-6-6z" stroke="#5e5e5e" stroke-width="3" fill="#fff"/><use xlink:href="#t" transform="matrix(1,0,0,1,532,172) translate(52.598765432098766 53.77777777777778)"/><path d="M520 786a6 6 0 0 1 6-6h148a6 6 0 0 1 6 6v108a6 6 0 0 1-6 6H526a6 6 0 0 1-6-6z" stroke="#5e5e5e" stroke-width="3" fill="#fff"/><use xlink:href="#t" transform="matrix(1,0,0,1,532,792) translate(52.598765432098766 53.77777777777778)"/><path d="M1128.47 109.08l1.07.26 1.02.42.94.57.83.72.7.83.6.94.4 1.02.27 1.1.08 225.12h-2l-.08-224.88-.17-.72-.3-.73-.4-.67-.52-.6-.58-.5-.67-.4-.73-.3-.76-.2-.82-.06-126.52.02v-2l126.6-.02zm-175.9 1.95l-243.9.04-.7.18-.74.3-.67.4-.6.52-.5.6-.4.66-.3.73-.2.76-.06.82-.07 99.02-.27 1.1-.42 1.02-.57.94-.72.83-.83.72-.94.57-1.02.42-1.06.26-1.06.08h-15.08v-2h15l.82-.06.76-.2.73-.3.67-.4.6-.5.5-.6.4-.67.3-.73.2-.72.06-98.86.08-1.06.26-1.06.42-1.02.57-.94.72-.83.83-.72.94-.57 1.02-.42 1.1-.27 244.14-.04z" stroke="#5e5e5e" stroke-width=".05" fill="#5e5e5e"/><path d="M682.5 221h-1.04v-2h1.03z" fill="#5e5e5e"/><path d="M682.5 221.03h-1.06v-2.06h1.07zm-1-2v1.94h.96v-1.94z" stroke="#5e5e5e" stroke-width=".05" fill="#5e5e5e"/><path d="M1133.38 355.32l-4.64-14.26h9.27z" fill="#5e5e5e"/><path d="M1133.38 358.56l-6-18.5h12zm-3.26-16.5l3.26 10.03 3.26-10.04z" stroke="#5e5e5e" stroke-width=".05" fill="#5e5e5e"/><use xlink:href="#u" transform="matrix(1,0,0,1,952.577551524765,99.33333333333333) translate(0 14.222222222222223)"/><path d="M1141.8 749.08l1.06.26 1 .42.95.57.85.72.7.83.6.94.4 1.02.27 1.1.08 205.1h-2l-.08-204.86-.17-.72-.3-.73-.4-.67-.52-.6-.6-.5-.67-.4-.72-.3-.76-.2-.82-.06-133.18.02v-2l133.25-.02zm-182.57 1.95l-250.55.04-.72.18-.73.3-.67.4-.6.52-.5.6-.4.66-.3.73-.2.76-.06.82-.07 79.02-.27 1.1-.42 1.02-.57.94-.72.83-.83.72-.94.57-1.02.42-1.06.26-1.06.08h-15.08v-2h15l.82-.06.76-.2.73-.3.67-.4.6-.5.5-.6.4-.67.3-.73.2-.72.06-78.86.08-1.06.26-1.06.42-1.02.57-.94.72-.83.83-.72.94-.57 1.02-.42 1.1-.27 250.8-.04z" stroke="#5e5e5e" stroke-width=".05" fill="#5e5e5e"/><path d="M682.5 841h-1.04v-2h1.03z" fill="#5e5e5e"/><path d="M682.5 841.02h-1.06V839h1.07zm-1-2V841h.96V839z" stroke="#5e5e5e" stroke-width=".05" fill="#5e5e5e"/><path d="M1146.7 975.32l-4.64-14.27h9.27z" fill="#5e5e5e"/><path d="M1146.7 978.55l-6.02-18.5h12.03zm-3.26-16.5l3.26 10.03 3.25-10.03z" stroke="#5e5e5e" stroke-width=".05" fill="#5e5e5e"/><use xlink:href="#u" transform="matrix(1,0,0,1,959.2326274503461,739.3333333333334) translate(0 14.222222222222223)"/><path d="M876.15 721.05l-167.47.02-.72.18-.73.3-.67.4-.6.52-.5.6-.4.66-.3.73-.2.76-.06.82-.07 109.02-.27 1.1-.42 1.02-.57.94-.72.83-.83.72-.94.57-1.02.42-1.06.26-1.06.08h-15.08v-2h15l.82-.06.76-.2.73-.3.67-.4.6-.5.5-.6.4-.67.3-.73.2-.72.06-108.86.08-1.06.26-1.06.42-1.02.57-.94.72-.83.83-.72.94-.57 1.02-.42 1.1-.27 167.7-.02zm403.6-.05l-296.2.04v-2l296.2-.04z" stroke="#5e5e5e" stroke-width=".05" fill="#5e5e5e"/><path d="M682.5 841h-1.04v-2h1.03z" fill="#5e5e5e"/><path d="M682.5 841.02h-1.06V839h1.07zm-1-2V841h.96V839z" stroke="#5e5e5e" stroke-width=".05" fill="#5e5e5e"/><path d="M1295 720l-14.26 4.64v-9.28z" fill="#5e5e5e"/><path d="M1298.24 720l-18.5 6v-12zm-16.5 3.26l10.03-3.26-10.03-3.26z" stroke="#5e5e5e" stroke-width=".05" fill="#5e5e5e"/><use xlink:href="#v" transform="matrix(1,0,0,1,876.1492813998061,709.3333333333334) translate(0 14.222222222222223)"/><path d="M741 1233.96l.06.82.2.76.3.73.4.67.5.6.6.5.67.4.73.3.72.2 74.86.06v2l-75.1-.07-1.1-.27-1.02-.42-.94-.57-.83-.72-.72-.83-.57-.94-.42-1.02-.26-1.06-.08-1.06-.07-383.37h2zm-5.9-394.88l.78.2v2.1l-.34-.13-.76-.2-.82-.05h-51.5v-2h51.58z" stroke="#5e5e5e" stroke-width=".05" fill="#5e5e5e"/><path d="M682.5 841h-1.04v-2h1.03z" fill="#5e5e5e"/><path d="M682.5 841.02h-1.06V839h1.07zm-1-2V841h.96V839z" stroke="#5e5e5e" stroke-width=".05" fill="#5e5e5e"/><path d="M835.3 1240l-14.27 4.64v-9.28z" fill="#5e5e5e"/><path d="M838.54 1240l-18.5 6v-12zm-16.5 3.26l10.02-3.26-10.03-3.26z" stroke="#5e5e5e" stroke-width=".05" fill="#5e5e5e"/><use xlink:href="#u" transform="matrix(1,0,0,1,683.7530864197531,903.9749119334716) translate(0 14.222222222222223)"/><path d="M735.1 219.08l1.06.26 1.02.42.94.57.83.72.72.83.57.94.42 1.02.27 1.1.07 389.02.06.82.2.76.3.73.4.67.5.6.6.5.67.4.73.3.72.2 74.86.06v2l-75.1-.07-1.1-.27-1.02-.42-.94-.57-.83-.72-.72-.83-.57-.94-.42-1.02-.26-1.06-.08-1.06-.07-388.86-.18-.72-.3-.73-.4-.67-.52-.6-.6-.5-.66-.4-.73-.3-.76-.2-.82-.06h-51.5v-2h51.58z" stroke="#5e5e5e" stroke-width=".05" fill="#5e5e5e"/><path d="M682.5 221h-1.04v-2h1.03z" fill="#5e5e5e"/><path d="M682.5 221.03h-1.06v-2.06h1.07zm-1-2v1.94h.96v-1.94z" stroke="#5e5e5e" stroke-width=".05" fill="#5e5e5e"/><path d="M835.3 620l-14.27 4.64v-9.28z" fill="#5e5e5e"/><path d="M838.54 620l-18.5 6v-12zm-16.5 3.26l10.02-3.26-10.03-3.26z" stroke="#5e5e5e" stroke-width=".05" fill="#5e5e5e"/><use xlink:href="#u" transform="matrix(1,0,0,1,683.7530864197531,315.9791984654084) translate(0 14.222222222222223)"/><path d="M876.15 81.05l-167.47.02-.72.18-.73.3-.67.4-.6.52-.5.6-.4.66-.3.73-.2.76-.06.82-.07 129.02-.27 1.1-.42 1.02-.57.94-.72.83-.83.72-.94.57-1.02.42-1.06.26-1.06.08h-15.08v-2h15l.82-.06.76-.2.73-.3.67-.4.6-.5.5-.6.4-.67.3-.73.2-.72.06-128.86.08-1.06.26-1.06.42-1.02.57-.94.72-.83.83-.72.94-.57 1.02-.42 1.1-.27 167.7-.02zm395.14-1.97l1.06.26 1.02.42.93.57.85.72.7.83.6.94.4 1.02.27 1.1.08 11.47.03.45.1.4.15.36.2.35.26.3.3.26.35.22.36.15.38.1.48.03-.16 2-.63-.05-.7-.17-.65-.27-.6-.37-.55-.46-.47-.54-.37-.6-.28-.67-.17-.7-.05-.66-.08-11.32-.17-.72-.3-.73-.4-.67-.52-.6-.6-.5-.66-.4-.73-.3-.76-.2-.82-.06-286.6.04v-2l286.68-.04z" stroke="#5e5e5e" stroke-width=".05" fill="#5e5e5e"/><path d="M682.5 221h-1.04v-2h1.03z" fill="#5e5e5e"/><path d="M682.5 221.03h-1.06v-2.06h1.07zm-1-2v1.94h.96v-1.94z" stroke="#5e5e5e" stroke-width=".05" fill="#5e5e5e"/><path d="M1295 100l-14.26 4.64v-9.28z" fill="#5e5e5e"/><path d="M1298.24 100l-18.5 6V94zm-16.5 3.26l10.03-3.26-10.03-3.26z" stroke="#5e5e5e" stroke-width=".05" fill="#5e5e5e"/><use xlink:href="#v" transform="matrix(1,0,0,1,876.1492813998061,69.33333333333333) translate(0 14.222222222222223)"/><path d="M1021.78 1081H982.5v-2h39.28zm58.28-.03l-21.78.02v-2l21.78-.03z" stroke="#5e5e5e" stroke-width=".05" fill="#5e5e5e"/><path d="M982.53 1081h-1.03v-2h1.03z" fill="#5e5e5e"/><path d="M982.55 1081.03h-1.07v-2.06h1.07zm-1.02-2v1.94h.97v-1.94z" stroke="#5e5e5e" stroke-width=".05" fill="#5e5e5e"/><path d="M1095.33 1079.97l-14.27 4.63v-9.27z" fill="#5e5e5e"/><path d="M1098.56 1079.97l-18.5 6v-12zm-16.5 3.26l10.03-3.26-10.04-3.26z" stroke="#5e5e5e" stroke-width=".05" fill="#5e5e5e"/><use xlink:href="#w" transform="matrix(1,0,0,1,1021.7849824454149,1069.3176788422109) translate(0 14.222222222222223)"/><path d="M1366.32 1058.03l-.08 1.06-.26 1.06-.42 1-.57.95-.72.85-.84.7-.94.58-1 .42-1.12.27-80.4.07v-2l80.16-.08.73-.17.72-.3.66-.4.6-.52.5-.6.42-.67.3-.72.18-.76.06-.83v-72.63h2zm0-94.04h-2V782.47h2z" stroke="#5e5e5e" stroke-width=".05" fill="#5e5e5e"/><path d="M1366.32 781.48v1.02h-2v-1.02z" fill="#5e5e5e"/><path d="M1366.35 781.45v1.08h-2.05v-1.08zm-2 1.03h1.95v-.98h-1.95z" stroke="#5e5e5e" stroke-width=".05" fill="#5e5e5e"/><path d="M1278.98 1068.63l-14.26-4.64 14.26-4.64z" fill="#5e5e5e"/><path d="M1279.98 1070l-18.5-6 18.5-6.02zm-12.03-6l10.03 3.25v-6.5z" stroke="#5e5e5e" stroke-width=".05" fill="#5e5e5e"/><use xlink:href="#l" transform="matrix(1,0,0,1,1339.6936339771564,963.9899280041985) translate(0 14.222222222222223)"/><path d="M1403.6 1081.72l-.28 1.1-.42 1.02-.57.94-.72.84-.82.7-.94.58-1.02.42-1.06.26-1.06.08H1280v-2h116.62l.82-.06.76-.18.73-.3.67-.4.6-.52.5-.6.4-.67.3-.72.2-.72v-66.15h2zm.06-281.72l-.05 194h-2l.06-194z" stroke="#5e5e5e" stroke-width=".05" fill="#5e5e5e"/><path d="M1279 1091.3l-14.27-4.64 14.27-4.63z" fill="#5e5e5e"/><path d="M1280 1092.68l-18.5-6.02 18.5-6zm-12.03-6.02l10.03 3.26v-6.52z" stroke="#5e5e5e" stroke-width=".05" fill="#5e5e5e"/><path d="M1407.3 799h-9.27l4.63-14.27z" fill="#5e5e5e"/><path d="M1408.67 800h-12.02l6-18.5zm-9.27-2h6.52l-3.26-10.03z" stroke="#5e5e5e" stroke-width=".05" fill="#5e5e5e"/><use xlink:href="#w" transform="matrix(1,0,0,1,1384.4139506636259,993.9953158137316) translate(0 14.222222222222223)"/><path d="M423.07 406.36h-40.62v-2h40.62zm96.96-.02H496.9v-2h23.12z" stroke="#5e5e5e" stroke-width=".05" fill="#5e5e5e"/><path d="M382.47 406.36h-1.02v-2h1.02z" fill="#5e5e5e"/><path d="M382.5 406.38h-1.08v-2.05h1.08zm-1.03-2v1.95h.98v-1.95z" stroke="#5e5e5e" stroke-width=".05" fill="#5e5e5e"/><path d="M535.3 405.34L521 409.97v-9.27z" fill="#5e5e5e"/><path d="M538.53 405.34l-18.5 6v-12zm-16.5 3.26l10.02-3.26-10.03-3.26z" stroke="#5e5e5e" stroke-width=".05" fill="#5e5e5e"/><use xlink:href="#x" transform="matrix(1,0,0,1,423.07279903632997,394.6805428658378) translate(0 14.222222222222223)"/><path d="M743.06 391.7h-40.62v-2h40.62zm96.94-.03h-23.1v-2H840z" stroke="#5e5e5e" stroke-width=".05" fill="#5e5e5e"/><path d="M702.47 391.7h-1.03v-2h1.03z" fill="#5e5e5e"/><path d="M702.5 391.7h-1.08v-2.04h1.07zm-1.03-2v1.96h.97v-1.95z" stroke="#5e5e5e" stroke-width=".05" fill="#5e5e5e"/><path d="M855.26 390.67L841 395.3v-9.27z" fill="#5e5e5e"/><path d="M858.5 390.67l-18.5 6v-12.02zm-16.5 3.26l10.03-3.26L842 387.4z" stroke="#5e5e5e" stroke-width=".05" fill="#5e5e5e"/><use xlink:href="#x" transform="matrix(1,0,0,1,743.0581406424377,380.01017816661385) translate(0 14.222222222222223)"/><path d="M735.88 841h-53.42v-2h53.42zm84.15 0h-35.9v-2h35.9z" stroke="#5e5e5e" stroke-width=".05" fill="#5e5e5e"/><path d="M682.5 841h-1.04v-2h1.03z" fill="#5e5e5e"/><path d="M682.5 841.02h-1.06V839h1.07zm-1-2V841h.96V839z" stroke="#5e5e5e" stroke-width=".05" fill="#5e5e5e"/><path d="M835.3 840l-14.27 4.64v-9.28z" fill="#5e5e5e"/><path d="M838.54 840l-18.5 6v-12zm-16.5 3.26l10.02-3.26-10.03-3.26z" stroke="#5e5e5e" stroke-width=".05" fill="#5e5e5e"/><use xlink:href="#u" transform="matrix(1,0,0,1,735.8765432098766,829.3333333333334) translate(0 14.222222222222223)"/><path d="M494.4 1304.82l.18.72.3.73.4.67.52.6.6.5.66.4.73.3.75.2.82.06 646.12-.07.7-.18.74-.3.66-.4.6-.52.5-.6.42-.66.3-.73.18-.76.07-.82v-201.48h2v201.56l-.1 1.06-.24 1.06-.42 1.02-.57.94-.7.83-.85.72-.93.57-1.02.42-1.1.27-360.1.04v-1.64h-51.26v1.64l-235.08.03-1.06-.08-1.07-.26-1.02-.42-.93-.57-.84-.72-.7-.83-.6-.94-.4-1.02-.27-1.1-.04-234.4h2zM534.35 920l-.08 16.56-.26 1.1-.42 1.02-.58.93-.7.85-.85.7-.93.6-1.02.4-1.07.26-1.05.1-28.87.07-.7.17-.74.3-.66.4-.6.52-.5.6-.42.67-.3.72-.18.76-.07.84.02 101.8h-2l-.02-101.88.1-1.06.24-1.07.42-1 .57-.95.7-.84.85-.7.93-.58 1.02-.42 1.1-.27 29.03-.07.82-.07.76-.18.73-.3.67-.4.6-.52.5-.6.42-.67.3-.72.16-.73.08-16.3z" stroke="#5e5e5e" stroke-width=".05" fill="#5e5e5e"/><path d="M1151.68 1102.5h-2v-1.02h2z" fill="#5e5e5e"/><path d="M1151.7 1102.53h-2.05v-1.08h2.05zm-2-1.03v.98h1.95v-.98z" stroke="#5e5e5e" stroke-width=".05" fill="#5e5e5e"/><path d="M537.97 919h-9.27l4.64-14.27z" fill="#5e5e5e"/><path d="M539.35 920h-12.02l6-18.5zm-9.27-2h6.52l-3.26-10.03z" stroke="#5e5e5e" stroke-width=".05" fill="#5e5e5e"/><path d="M460 1246a6 6 0 0 1 6-6h228a6 6 0 0 1 6 6v51.33a6 6 0 0 1-6 6H466a6 6 0 0 1-6-6z" stroke="#000" stroke-opacity="0" stroke-width="3" fill="#fff" fill-opacity="0"/><use xlink:href="#y" transform="matrix(1,0,0,1,465,1245) translate(74.90740740740742 17.77777777777778)"/><use xlink:href="#z" transform="matrix(1,0,0,1,465,1245) translate(82.28395061728395 44.44444444444444)"/><path d="M1021.78 450.33H982.5v-2h39.28zm58.28-.02l-21.78.02v-2h21.77z" stroke="#5e5e5e" stroke-width=".05" fill="#5e5e5e"/><path d="M982.53 450.33h-1.03v-2h1.03z" fill="#5e5e5e"/><path d="M982.55 450.36h-1.07v-2.05h1.07zm-1.02-2v1.95h.97v-1.94z" stroke="#5e5e5e" stroke-width=".05" fill="#5e5e5e"/><path d="M1095.32 449.3l-14.27 4.65v-9.27z" fill="#5e5e5e"/><path d="M1098.56 449.3l-18.5 6.02V443.3zm-16.5 3.27l10.02-3.26-10.03-3.25z" stroke="#5e5e5e" stroke-width=".05" fill="#5e5e5e"/><use xlink:href="#w" transform="matrix(1,0,0,1,1021.7813655304019,438.6564885000529) translate(0 14.222222222222223)"/><path d="M1118.34 977.57h-2v-104.2h2zm-6.93-115.8v2l-91.42-.06v-2z" stroke="#5e5e5e" stroke-width=".05" fill="#5e5e5e"/><path d="M1118.34 978.57h-2v-1.03h2z" fill="#5e5e5e"/><path d="M1118.36 978.6h-2.05v-1.08h2.06zm-2-1.03v.97h1.95v-.97z" stroke="#5e5e5e" stroke-width=".05" fill="#5e5e5e"/><path d="M1018.98 867.35l-14.27-4.64 14.28-4.63z" fill="#5e5e5e"/><path d="M1019.98 868.72l-18.5-6 18.5-6.02zm-12.03-6l10.03 3.25v-6.52z" stroke="#5e5e5e" stroke-width=".05" fill="#5e5e5e"/><g><use xlink:href="#j" transform="matrix(1,0,0,1,1111.4106686576845,852.0433569161637) translate(0 14.222222222222223)"/></g><path d="M1002.57 1006.33H1000v-2h2.57zm94.94 0h-20.06v-2h20.07z" stroke="#5e5e5e" stroke-width=".05" fill="#5e5e5e"/><path d="M1098.5 1006.33h-1v-2h1z" fill="#5e5e5e"/><path d="M1098.54 1006.36h-1.08v-2.05h1.08zm-1.03-2v1.95h1v-1.94z" stroke="#5e5e5e" stroke-width=".05" fill="#5e5e5e"/><path d="M999 1009.97l-14.26-4.64 14.26-4.63z" fill="#5e5e5e"/><path d="M1000 1011.34l-18.5-6 18.5-6.02zm-12.03-6l10.03 3.25v-6.53z" stroke="#5e5e5e" stroke-width=".05" fill="#5e5e5e"/><g><use xlink:href="#A" transform="matrix(1,0,0,1,1002.5744628794437,994.6649605860904) translate(0 14.222222222222223)"/></g><defs><path fill="#333" d="M212-179c-10-28-35-45-73-45-59 0-87 40-87 99 0 60 29 101 89 101 43 0 62-24 78-52l27 14C228-24 195 4 139 4 59 4 22-46 18-125c-6-104 99-153 187-111 19 9 31 26 39 46" id="B"/><path fill="#333" d="M205 0l-28-72H64L36 0H1l101-248h38L239 0h-34zm-38-99l-47-123c-12 45-31 82-46 123h93" id="C"/><path fill="#333" d="M185-189c-5-48-123-54-124 2 14 75 158 14 163 119 3 78-121 87-175 55-17-10-28-26-33-46l33-7c5 56 141 63 141-1 0-78-155-14-162-118-5-82 145-84 179-34 5 7 8 16 11 25" id="D"/><g id="a"><use transform="matrix(0.06172839506172839,0,0,0.06172839506172839,0,0)" xlink:href="#B"/><use transform="matrix(0.06172839506172839,0,0,0.06172839506172839,15.987654320987653,0)" xlink:href="#C"/><use transform="matrix(0.06172839506172839,0,0,0.06172839506172839,30.80246913580247,0)" xlink:href="#D"/></g><path fill="#333" d="M30 0v-248h33v221h125V0H30" id="E"/><path fill="#333" d="M100-194c62-1 85 37 85 99 1 63-27 99-86 99S16-35 15-95c0-66 28-99 85-99zM99-20c44 1 53-31 53-75 0-43-8-75-51-75s-53 32-53 75 10 74 51 75" id="F"/><path fill="#333" d="M177-190C167-65 218 103 67 71c-23-6-38-20-44-43l32-5c15 47 100 32 89-28v-30C133-14 115 1 83 1 29 1 15-40 15-95c0-56 16-97 71-98 29-1 48 16 59 35 1-10 0-23 2-32h30zM94-22c36 0 50-32 50-73 0-42-14-75-50-75-39 0-46 34-46 75s6 73 46 73" id="G"/><g id="b"><use transform="matrix(0.06172839506172839,0,0,0.06172839506172839,0,0)" xlink:href="#E"/><use transform="matrix(0.06172839506172839,0,0,0.06172839506172839,12.345679012345679,0)" xlink:href="#F"/><use transform="matrix(0.06172839506172839,0,0,0.06172839506172839,24.691358024691358,0)" xlink:href="#G"/></g><path fill="#333" d="M190 0L58-211 59 0H30v-248h39L202-35l-2-213h31V0h-41" id="H"/><path fill="#333" d="M100-194c63 0 86 42 84 106H49c0 40 14 67 53 68 26 1 43-12 49-29l28 8c-11 28-37 45-77 45C44 4 14-33 15-96c1-61 26-98 85-98zm52 81c6-60-76-77-97-28-3 7-6 17-6 28h103" id="I"/><path fill="#333" d="M59-47c-2 24 18 29 38 22v24C64 9 27 4 27-40v-127H5v-23h24l9-43h21v43h35v23H59v120" id="J"/><g id="c"><use transform="matrix(0.06172839506172839,0,0,0.06172839506172839,0,0)" xlink:href="#H"/><use transform="matrix(0.06172839506172839,0,0,0.06172839506172839,15.987654320987653,0)" xlink:href="#I"/><use transform="matrix(0.06172839506172839,0,0,0.06172839506172839,28.333333333333332,0)" xlink:href="#J"/></g><path fill="#333" d="M85-194c31 0 48 13 60 33l-1-100h32l1 261h-30c-2-10 0-23-3-31C134-8 116 4 85 4 32 4 16-35 15-94c0-66 23-100 70-100zm9 24c-40 0-46 34-46 75 0 40 6 74 45 74 42 0 51-32 51-76 0-42-9-74-50-73" id="K"/><path fill="#333" d="M141 0L90-78 38 0H4l68-98-65-92h35l48 74 47-74h35l-64 92 68 98h-35" id="L"/><path fill="#333" d="M101-251c68 0 85 55 85 127S166 4 100 4C33 4 14-52 14-124c0-73 17-127 87-127zm-1 229c47 0 54-49 54-102s-4-102-53-102c-51 0-55 48-55 102 0 53 5 102 54 102" id="M"/><g id="d"><use transform="matrix(0.06172839506172839,0,0,0.06172839506172839,0,0)" xlink:href="#K"/><use transform="matrix(0.06172839506172839,0,0,0.06172839506172839,12.345679012345679,0)" xlink:href="#J"/><use transform="matrix(0.06172839506172839,0,0,0.06172839506172839,18.51851851851852,0)" xlink:href="#L"/><use transform="matrix(0.06172839506172839,0,0,0.06172839506172839,29.62962962962963,0)" xlink:href="#M"/></g><path fill="#333" d="M240-174c0 40-23 61-54 70L253 0h-59l-57-94H76V0H24v-248c93 4 217-23 216 74zM76-134c48-2 112 12 112-38 0-48-66-32-112-35v73" id="N"/><path fill="#333" d="M24 0v-248h195v40H76v63h132v40H76v65h150V0H24" id="O"/><path fill="#333" d="M24-248c120-7 223 5 221 122C244-46 201 0 124 0H24v-248zM76-40c74 7 117-18 117-86 0-67-45-88-117-82v168" id="P"/><path fill="#333" d="M140-251c80 0 125 45 125 126S219 4 139 4C58 4 15-44 15-125s44-126 125-126zm-1 214c52 0 73-35 73-88 0-50-21-86-72-86-52 0-73 35-73 86s22 88 72 88" id="Q"/><path fill="#333" d="M76-54c-1 42 2 86-19 110H24C36 42 46 24 48 0H25v-54h51" id="R"/><g id="e"><use transform="matrix(0.04938271604938272,0,0,0.04938271604938272,0,0)" xlink:href="#N"/><use transform="matrix(0.04938271604938272,0,0,0.04938271604938272,12.790123456790125,0)" xlink:href="#O"/><use transform="matrix(0.04938271604938272,0,0,0.04938271604938272,24.641975308641978,0)" xlink:href="#P"/><use transform="matrix(0.04938271604938272,0,0,0.04938271604938272,37.4320987654321,0)" xlink:href="#Q"/><use transform="matrix(0.04938271604938272,0,0,0.04938271604938272,51.25925925925927,0)" xlink:href="#R"/></g><path fill="#333" d="M24-248c93 1 206-16 204 79-1 75-69 88-152 82V0H24v-248zm52 121c47 0 100 7 100-41 0-47-54-39-100-39v80" id="S"/><use transform="matrix(0.04938271604938272,0,0,0.04938271604938272,0,0)" xlink:href="#S" id="f"/><path fill="#333" d="M30-248c87 1 191-15 191 75 0 78-77 80-158 76V0H30v-248zm33 125c57 0 124 11 124-50 0-59-68-47-124-48v98" id="T"/><path fill="#333" d="M210-169c-67 3-38 105-44 169h-31v-121c0-29-5-50-35-48C34-165 62-65 56 0H25l-1-190h30c1 10-1 24 2 32 10-44 99-50 107 0 11-21 27-35 58-36 85-2 47 119 55 194h-31v-121c0-29-5-49-35-48" id="U"/><path fill="#333" d="M141-36C126-15 110 5 73 4 37 3 15-17 15-53c-1-64 63-63 125-63 3-35-9-54-41-54-24 1-41 7-42 31l-33-3c5-37 33-52 76-52 45 0 72 20 72 64v82c-1 20 7 32 28 27v20c-31 9-61-2-59-35zM48-53c0 20 12 33 32 33 41-3 63-29 60-74-43 2-92-5-92 41" id="V"/><path fill="#333" d="M96-169c-40 0-48 33-48 73s9 75 48 75c24 0 41-14 43-38l32 2c-6 37-31 61-74 61-59 0-76-41-82-99-10-93 101-131 147-64 4 7 5 14 7 22l-32 3c-4-21-16-35-41-35" id="W"/><path fill="#333" d="M106-169C34-169 62-67 57 0H25v-261h32l-1 103c12-21 28-36 61-36 89 0 53 116 60 194h-32v-121c2-32-8-49-39-48" id="X"/><g id="g"><use transform="matrix(0.06172839506172839,0,0,0.06172839506172839,0,0)" xlink:href="#T"/><use transform="matrix(0.06172839506172839,0,0,0.06172839506172839,14.814814814814813,0)" xlink:href="#U"/><use transform="matrix(0.06172839506172839,0,0,0.06172839506172839,33.2716049382716,0)" xlink:href="#V"/><use transform="matrix(0.06172839506172839,0,0,0.06172839506172839,45.61728395061728,0)" xlink:href="#W"/><use transform="matrix(0.06172839506172839,0,0,0.06172839506172839,56.72839506172839,0)" xlink:href="#X"/></g><path fill="#333" d="M233-177c-1 41-23 64-60 70L243 0h-38l-65-103H63V0H30v-248c88 3 205-21 203 71zM63-129c60-2 137 13 137-47 0-61-80-42-137-45v92" id="Y"/><g id="h"><use transform="matrix(0.06172839506172839,0,0,0.06172839506172839,0,0)" xlink:href="#Y"/><use transform="matrix(0.06172839506172839,0,0,0.06172839506172839,15.987654320987653,0)" xlink:href="#I"/><use transform="matrix(0.06172839506172839,0,0,0.06172839506172839,28.333333333333332,0)" xlink:href="#U"/><use transform="matrix(0.06172839506172839,0,0,0.06172839506172839,46.79012345679012,0)" xlink:href="#V"/><use transform="matrix(0.06172839506172839,0,0,0.06172839506172839,59.1358024691358,0)" xlink:href="#W"/><use transform="matrix(0.06172839506172839,0,0,0.06172839506172839,70.24691358024691,0)" xlink:href="#X"/></g><path fill="#333" d="M114-163C36-179 61-72 57 0H25l-1-190h30c1 12-1 29 2 39 6-27 23-49 58-41v29" id="Z"/><path fill="#333" d="M84 4C-5 8 30-112 23-190h32v120c0 31 7 50 39 49 72-2 45-101 50-169h31l1 190h-30c-1-10 1-25-2-33-11 22-28 36-60 37" id="aa"/><path fill="#333" d="M117-194c89-4 53 116 60 194h-32v-121c0-31-8-49-39-48C34-167 62-67 57 0H25l-1-190h30c1 10-1 24 2 32 11-22 29-35 61-36" id="ab"/><g id="i"><use transform="matrix(0.06172839506172839,0,0,0.06172839506172839,0,0)" xlink:href="#T"/><use transform="matrix(0.06172839506172839,0,0,0.06172839506172839,14.814814814814813,0)" xlink:href="#Z"/><use transform="matrix(0.06172839506172839,0,0,0.06172839506172839,22.160493827160494,0)" xlink:href="#aa"/><use transform="matrix(0.06172839506172839,0,0,0.06172839506172839,34.50617283950617,0)" xlink:href="#ab"/><use transform="matrix(0.06172839506172839,0,0,0.06172839506172839,46.85185185185185,0)" xlink:href="#I"/><use transform="matrix(0.06172839506172839,0,0,0.06172839506172839,59.197530864197525,0)" xlink:href="#Z"/></g><use transform="matrix(0.04938271604938272,0,0,0.04938271604938272,0,0)" xlink:href="#S" id="j"/><path fill="#333" d="M238-95c0 69-44 99-111 99C63 4 22-25 22-93v-155h51v151c-1 38 19 59 55 60 90 1 49-130 58-211h52v153" id="ac"/><path fill="#333" d="M175 0L67-191c6 58 2 128 3 191H24v-248h59L193-55c-6-58-2-129-3-193h46V0h-61" id="ad"/><g id="k"><use transform="matrix(0.04938271604938272,0,0,0.04938271604938272,0,0)" xlink:href="#S"/><use transform="matrix(0.04938271604938272,0,0,0.04938271604938272,11.851851851851853,0)" xlink:href="#N"/><use transform="matrix(0.04938271604938272,0,0,0.04938271604938272,24.641975308641978,0)" xlink:href="#ac"/><use transform="matrix(0.04938271604938272,0,0,0.04938271604938272,37.4320987654321,0)" xlink:href="#ad"/><use transform="matrix(0.04938271604938272,0,0,0.04938271604938272,50.22222222222223,0)" xlink:href="#O"/></g><g id="l"><use transform="matrix(0.04938271604938272,0,0,0.04938271604938272,0,0)" xlink:href="#N"/><use transform="matrix(0.04938271604938272,0,0,0.04938271604938272,12.790123456790125,0)" xlink:href="#O"/><use transform="matrix(0.04938271604938272,0,0,0.04938271604938272,24.641975308641978,0)" xlink:href="#P"/><use transform="matrix(0.04938271604938272,0,0,0.04938271604938272,37.4320987654321,0)" xlink:href="#Q"/></g><path fill="#333" d="M240 0l2-218c-23 76-54 145-80 218h-23L58-218 59 0H30v-248h44l77 211c21-75 51-140 76-211h43V0h-30" id="ae"/><g id="m"><use transform="matrix(0.06172839506172839,0,0,0.06172839506172839,0,0)" xlink:href="#ae"/><use transform="matrix(0.06172839506172839,0,0,0.06172839506172839,18.456790123456788,0)" xlink:href="#F"/><use transform="matrix(0.06172839506172839,0,0,0.06172839506172839,30.80246913580247,0)" xlink:href="#J"/><use transform="matrix(0.06172839506172839,0,0,0.06172839506172839,36.97530864197531,0)" xlink:href="#Z"/></g><path fill="#333" d="M24 0v-261h32V0H24" id="af"/><path fill="#333" d="M24-231v-30h32v30H24zM24 0v-190h32V0H24" id="ag"/><g id="n"><use transform="matrix(0.06172839506172839,0,0,0.06172839506172839,0,0)" xlink:href="#B"/><use transform="matrix(0.06172839506172839,0,0,0.06172839506172839,15.987654320987653,0)" xlink:href="#af"/><use transform="matrix(0.06172839506172839,0,0,0.06172839506172839,20.864197530864196,0)" xlink:href="#ag"/><use transform="matrix(0.06172839506172839,0,0,0.06172839506172839,25.74074074074074,0)" xlink:href="#I"/><use transform="matrix(0.06172839506172839,0,0,0.06172839506172839,38.08641975308642,0)" xlink:href="#ab"/><use transform="matrix(0.06172839506172839,0,0,0.06172839506172839,50.432098765432094,0)" xlink:href="#J"/></g><path fill="#333" d="M30-248c118-7 216 8 213 122C240-48 200 0 122 0H30v-248zM63-27c89 8 146-16 146-99s-60-101-146-95v194" id="ah"/><path fill="#333" d="M33 0v-248h34V0H33" id="ai"/><path fill="#333" d="M195 0l-74-108L45 0H8l94-129-87-119h37l69 98 67-98h37l-84 118L233 0h-38" id="aj"/><g id="o"><use transform="matrix(0.06172839506172839,0,0,0.06172839506172839,0,0)" xlink:href="#ah"/><use transform="matrix(0.06172839506172839,0,0,0.06172839506172839,15.987654320987653,0)" xlink:href="#ai"/><use transform="matrix(0.06172839506172839,0,0,0.06172839506172839,22.160493827160494,0)" xlink:href="#aj"/></g><g id="p"><use transform="matrix(0.06172839506172839,0,0,0.06172839506172839,0,0)" xlink:href="#B"/><use transform="matrix(0.06172839506172839,0,0,0.06172839506172839,15.987654320987653,0)" xlink:href="#C"/><use transform="matrix(0.06172839506172839,0,0,0.06172839506172839,30.80246913580247,0)" xlink:href="#D"/></g><g id="q"><use transform="matrix(0.06172839506172839,0,0,0.06172839506172839,0,0)" xlink:href="#B"/><use transform="matrix(0.06172839506172839,0,0,0.06172839506172839,15.987654320987653,0)" xlink:href="#af"/><use transform="matrix(0.06172839506172839,0,0,0.06172839506172839,20.864197530864196,0)" xlink:href="#ag"/><use transform="matrix(0.06172839506172839,0,0,0.06172839506172839,25.74074074074074,0)" xlink:href="#I"/><use transform="matrix(0.06172839506172839,0,0,0.06172839506172839,38.08641975308642,0)" xlink:href="#ab"/><use transform="matrix(0.06172839506172839,0,0,0.06172839506172839,50.432098765432094,0)" xlink:href="#J"/></g><path fill="#333" d="M169-182c-1-43-94-46-97-3 18 66 151 10 154 114 3 95-165 93-204 36-6-8-10-19-12-30l50-8c3 46 112 56 116 5-17-69-150-10-154-114-4-87 153-88 188-35 5 8 8 18 10 28" id="ak"/><path fill="#333" d="M136-208V0H84v-208H4v-40h212v40h-80" id="al"/><path fill="#333" d="M199 0l-22-63H83L61 0H9l90-248h61L250 0h-51zm-33-102l-36-108c-10 38-24 72-36 108h72" id="am"/><path fill="#333" d="M182-130c37 4 62 22 62 59C244 23 116-4 24 0v-248c84 5 203-23 205 63 0 31-19 50-47 55zM76-148c40-3 101 13 101-30 0-44-60-28-101-31v61zm0 110c48-3 116 14 116-37 0-48-69-32-116-35v72" id="an"/><path fill="#333" d="M24 0v-248h52v208h133V0H24" id="ao"/><g id="r"><use transform="matrix(0.04938271604938272,0,0,0.04938271604938272,0,0)" xlink:href="#ak"/><use transform="matrix(0.04938271604938272,0,0,0.04938271604938272,11.851851851851853,0)" xlink:href="#al"/><use transform="matrix(0.04938271604938272,0,0,0.04938271604938272,21.333333333333336,0)" xlink:href="#am"/><use transform="matrix(0.04938271604938272,0,0,0.04938271604938272,34.12345679012346,0)" xlink:href="#an"/><use transform="matrix(0.04938271604938272,0,0,0.04938271604938272,46.91358024691359,0)" xlink:href="#ao"/><use transform="matrix(0.04938271604938272,0,0,0.04938271604938272,57.72839506172841,0)" xlink:href="#O"/></g><use transform="matrix(0.04938271604938272,0,0,0.04938271604938272,0,0)" xlink:href="#O" id="s"/><path fill="#333" d="M197 0v-115H63V0H30v-248h33v105h134v-105h34V0h-34" id="ap"/><g id="t"><use transform="matrix(0.06172839506172839,0,0,0.06172839506172839,0,0)" xlink:href="#ap"/><use transform="matrix(0.06172839506172839,0,0,0.06172839506172839,15.987654320987653,0)" xlink:href="#C"/></g><path fill="#333" d="M76-208v77h127v40H76V0H24v-248h183v40H76" id="aq"/><g id="u"><use transform="matrix(0.04938271604938272,0,0,0.04938271604938272,0,0)" xlink:href="#aq"/><use transform="matrix(0.04938271604938272,0,0,0.04938271604938272,10.814814814814815,0)" xlink:href="#Q"/><use transform="matrix(0.04938271604938272,0,0,0.04938271604938272,24.641975308641975,0)" xlink:href="#N"/><use transform="matrix(0.04938271604938272,0,0,0.04938271604938272,37.4320987654321,0)" xlink:href="#al"/></g><path fill="#333" d="M24 0v-248h52V0H24" id="ar"/><path fill="#333" d="M147 0H94L2-248h55l64 206c17-72 42-137 63-206h54" id="as"/><path fill="#333" d="M4 7l51-268h42L46 7H4" id="at"/><g id="v"><use transform="matrix(0.04938271604938272,0,0,0.04938271604938272,0,0)" xlink:href="#am"/><use transform="matrix(0.04938271604938272,0,0,0.04938271604938272,12.790123456790125,0)" xlink:href="#ao"/><use transform="matrix(0.04938271604938272,0,0,0.04938271604938272,23.60493827160494,0)" xlink:href="#ar"/><use transform="matrix(0.04938271604938272,0,0,0.04938271604938272,28.543209876543212,0)" xlink:href="#as"/><use transform="matrix(0.04938271604938272,0,0,0.04938271604938272,40.39506172839506,0)" xlink:href="#O"/><use transform="matrix(0.04938271604938272,0,0,0.04938271604938272,52.24691358024692,0)" xlink:href="#at"/><use transform="matrix(0.04938271604938272,0,0,0.04938271604938272,57.18518518518519,0)" xlink:href="#P"/><use transform="matrix(0.04938271604938272,0,0,0.04938271604938272,69.97530864197532,0)" xlink:href="#O"/><use transform="matrix(0.04938271604938272,0,0,0.04938271604938272,81.82716049382717,0)" xlink:href="#am"/><use transform="matrix(0.04938271604938272,0,0,0.04938271604938272,94.61728395061729,0)" xlink:href="#P"/></g><g id="w"><use transform="matrix(0.04938271604938272,0,0,0.04938271604938272,0,0)" xlink:href="#O"/><use transform="matrix(0.04938271604938272,0,0,0.04938271604938272,11.851851851851853,0)" xlink:href="#Q"/><use transform="matrix(0.04938271604938272,0,0,0.04938271604938272,25.679012345679016,0)" xlink:href="#ao"/></g><path fill="#333" d="M67-125c0 53 21 87 73 88 37 1 54-22 65-47l45 17C233-25 199 4 140 4 58 4 20-42 15-125 8-235 124-281 211-232c18 10 29 29 36 50l-46 12c-8-25-30-41-62-41-52 0-71 34-72 86" id="au"/><g id="x"><use transform="matrix(0.04938271604938272,0,0,0.04938271604938272,0,0)" xlink:href="#au"/><use transform="matrix(0.04938271604938272,0,0,0.04938271604938272,12.790123456790125,0)" xlink:href="#am"/><use transform="matrix(0.04938271604938272,0,0,0.04938271604938272,25.58024691358025,0)" xlink:href="#ad"/><use transform="matrix(0.04938271604938272,0,0,0.04938271604938272,38.370370370370374,0)" xlink:href="#au"/><use transform="matrix(0.04938271604938272,0,0,0.04938271604938272,51.1604938271605,0)" xlink:href="#O"/><use transform="matrix(0.04938271604938272,0,0,0.04938271604938272,63.01234567901235,0)" xlink:href="#ao"/></g><path fill="#333" d="M135-143c-3-34-86-38-87 0 15 53 115 12 119 90S17 21 10-45l28-5c4 36 97 45 98 0-10-56-113-15-118-90-4-57 82-63 122-42 12 7 21 19 24 35" id="av"/><g id="y"><use transform="matrix(0.06172839506172839,0,0,0.06172839506172839,0,0)" xlink:href="#T"/><use transform="matrix(0.06172839506172839,0,0,0.06172839506172839,14.814814814814813,0)" xlink:href="#Z"/><use transform="matrix(0.06172839506172839,0,0,0.06172839506172839,22.160493827160494,0)" xlink:href="#F"/><use transform="matrix(0.06172839506172839,0,0,0.06172839506172839,34.50617283950617,0)" xlink:href="#W"/><use transform="matrix(0.06172839506172839,0,0,0.06172839506172839,45.61728395061728,0)" xlink:href="#I"/><use transform="matrix(0.06172839506172839,0,0,0.06172839506172839,57.962962962962955,0)" xlink:href="#av"/><use transform="matrix(0.06172839506172839,0,0,0.06172839506172839,69.07407407407406,0)" xlink:href="#av"/></g><path fill="#333" d="M108 0H70L1-190h34L89-25l56-165h34" id="aw"/><g id="z"><use transform="matrix(0.06172839506172839,0,0,0.06172839506172839,0,0)" xlink:href="#I"/><use transform="matrix(0.06172839506172839,0,0,0.06172839506172839,12.345679012345679,0)" xlink:href="#aw"/><use transform="matrix(0.06172839506172839,0,0,0.06172839506172839,23.45679012345679,0)" xlink:href="#I"/><use transform="matrix(0.06172839506172839,0,0,0.06172839506172839,35.80246913580247,0)" xlink:href="#ab"/><use transform="matrix(0.06172839506172839,0,0,0.06172839506172839,48.148148148148145,0)" xlink:href="#J"/><use transform="matrix(0.06172839506172839,0,0,0.06172839506172839,54.32098765432099,0)" xlink:href="#av"/></g><path fill="#333" d="M186 0v-106H76V0H24v-248h52v99h110v-99h50V0h-50" id="ax"/><g id="A"><use transform="matrix(0.04938271604938272,0,0,0.04938271604938272,0,0)" xlink:href="#ak"/><use transform="matrix(0.04938271604938272,0,0,0.04938271604938272,11.851851851851853,0)" xlink:href="#O"/><use transform="matrix(0.04938271604938272,0,0,0.04938271604938272,23.703703703703706,0)" xlink:href="#am"/><use transform="matrix(0.04938271604938272,0,0,0.04938271604938272,36.49382716049383,0)" xlink:href="#N"/><use transform="matrix(0.04938271604938272,0,0,0.04938271604938272,49.283950617283956,0)" xlink:href="#au"/><use transform="matrix(0.04938271604938272,0,0,0.04938271604938272,62.074074074074076,0)" xlink:href="#ax"/></g></defs></g></svg>